<mxfile host="app.diagrams.net" agent="Mozilla/5.0 (Windows NT 10.0; Win64; x64) AppleWebKit/537.36 (KHTML, like Gecko) Chrome/131.0.0.0 Safari/537.36" version="24.8.6">
  <diagram name="1 oldal" id="cHvTnoC5aLwgN-uYX5BI">
    <mxGraphModel dx="819" dy="426" grid="1" gridSize="10" guides="1" tooltips="1" connect="1" arrows="1" fold="1" page="1" pageScale="1" pageWidth="827" pageHeight="1169" math="0" shadow="0">
      <root>
        <mxCell id="0" />
        <mxCell id="1" parent="0" />
        <mxCell id="0G4iyGG1_v4yGsugWWcE-2" value="" style="rounded=0;whiteSpace=wrap;html=1;" parent="1" vertex="1">
          <mxGeometry x="290" y="140" width="350" height="320" as="geometry" />
        </mxCell>
        <mxCell id="0G4iyGG1_v4yGsugWWcE-3" value="User" style="shape=umlActor;verticalLabelPosition=bottom;verticalAlign=top;html=1;outlineConnect=0;" parent="1" vertex="1">
          <mxGeometry x="450" y="480" width="30" height="60" as="geometry" />
        </mxCell>
        <mxCell id="0G4iyGG1_v4yGsugWWcE-4" value="Regisztráció" style="ellipse;whiteSpace=wrap;html=1;" parent="1" vertex="1">
          <mxGeometry x="310" y="410" width="120" height="40" as="geometry" />
        </mxCell>
        <mxCell id="0G4iyGG1_v4yGsugWWcE-5" value="Rendszer" style="text;html=1;align=center;verticalAlign=middle;resizable=0;points=[];autosize=1;strokeColor=none;fillColor=none;" parent="1" vertex="1">
          <mxGeometry x="430" y="140" width="70" height="30" as="geometry" />
        </mxCell>
        <mxCell id="0G4iyGG1_v4yGsugWWcE-7" value="Bejelentkezés/&lt;div&gt;Kijelentkezés&lt;/div&gt;" style="ellipse;whiteSpace=wrap;html=1;" parent="1" vertex="1">
          <mxGeometry x="310" y="360" width="120" height="40" as="geometry" />
        </mxCell>
        <mxCell id="0G4iyGG1_v4yGsugWWcE-8" value="Ötletdobozok megtekintése" style="ellipse;whiteSpace=wrap;html=1;" parent="1" vertex="1">
          <mxGeometry x="310" y="310" width="120" height="40" as="geometry" />
        </mxCell>
        <mxCell id="0G4iyGG1_v4yGsugWWcE-9" value="Ötletek létrehozása" style="ellipse;whiteSpace=wrap;html=1;" parent="1" vertex="1">
          <mxGeometry x="500" y="410" width="120" height="40" as="geometry" />
        </mxCell>
        <mxCell id="0G4iyGG1_v4yGsugWWcE-10" value="Saját ötlet szer-&lt;div&gt;kesztése/törlése&lt;/div&gt;" style="ellipse;whiteSpace=wrap;html=1;" parent="1" vertex="1">
          <mxGeometry x="500" y="360" width="120" height="40" as="geometry" />
        </mxCell>
        <mxCell id="0G4iyGG1_v4yGsugWWcE-11" value="Kommentek létrehozása" style="ellipse;whiteSpace=wrap;html=1;" parent="1" vertex="1">
          <mxGeometry x="500" y="310" width="120" height="40" as="geometry" />
        </mxCell>
        <mxCell id="0G4iyGG1_v4yGsugWWcE-12" value="Saját komment&lt;div&gt;szerkesztése/&lt;span style=&quot;background-color: initial;&quot;&gt;törlése&lt;/span&gt;&lt;/div&gt;" style="ellipse;whiteSpace=wrap;html=1;" parent="1" vertex="1">
          <mxGeometry x="400" y="170" width="130" height="50" as="geometry" />
        </mxCell>
        <mxCell id="0G4iyGG1_v4yGsugWWcE-13" value="" style="endArrow=classic;html=1;rounded=0;entryX=0.5;entryY=1;entryDx=0;entryDy=0;exitX=0.5;exitY=0;exitDx=0;exitDy=0;exitPerimeter=0;" parent="1" source="0G4iyGG1_v4yGsugWWcE-3" target="0G4iyGG1_v4yGsugWWcE-12" edge="1">
          <mxGeometry width="50" height="50" relative="1" as="geometry">
            <mxPoint x="465" y="470" as="sourcePoint" />
            <mxPoint x="400" y="540" as="targetPoint" />
          </mxGeometry>
        </mxCell>
        <mxCell id="0G4iyGG1_v4yGsugWWcE-14" value="" style="endArrow=classic;html=1;rounded=0;entryX=1;entryY=0.5;entryDx=0;entryDy=0;exitX=0.5;exitY=0;exitDx=0;exitDy=0;exitPerimeter=0;" parent="1" source="0G4iyGG1_v4yGsugWWcE-3" target="0G4iyGG1_v4yGsugWWcE-8" edge="1">
          <mxGeometry width="50" height="50" relative="1" as="geometry">
            <mxPoint x="470" y="470" as="sourcePoint" />
            <mxPoint x="470" y="340" as="targetPoint" />
            <Array as="points">
              <mxPoint x="465" y="330" />
            </Array>
          </mxGeometry>
        </mxCell>
        <mxCell id="0G4iyGG1_v4yGsugWWcE-15" value="" style="endArrow=classic;html=1;rounded=0;entryX=0;entryY=0.5;entryDx=0;entryDy=0;exitX=0.5;exitY=0;exitDx=0;exitDy=0;exitPerimeter=0;" parent="1" source="0G4iyGG1_v4yGsugWWcE-3" target="0G4iyGG1_v4yGsugWWcE-11" edge="1">
          <mxGeometry width="50" height="50" relative="1" as="geometry">
            <mxPoint x="430" y="410" as="sourcePoint" />
            <mxPoint x="480" y="360" as="targetPoint" />
            <Array as="points">
              <mxPoint x="465" y="330" />
            </Array>
          </mxGeometry>
        </mxCell>
        <mxCell id="0G4iyGG1_v4yGsugWWcE-16" value="" style="endArrow=classic;html=1;rounded=0;entryX=0;entryY=0.5;entryDx=0;entryDy=0;exitX=0.5;exitY=0;exitDx=0;exitDy=0;exitPerimeter=0;" parent="1" source="0G4iyGG1_v4yGsugWWcE-3" target="0G4iyGG1_v4yGsugWWcE-10" edge="1">
          <mxGeometry width="50" height="50" relative="1" as="geometry">
            <mxPoint x="430" y="410" as="sourcePoint" />
            <mxPoint x="480" y="360" as="targetPoint" />
            <Array as="points">
              <mxPoint x="465" y="380" />
            </Array>
          </mxGeometry>
        </mxCell>
        <mxCell id="0G4iyGG1_v4yGsugWWcE-17" value="" style="endArrow=classic;html=1;rounded=0;entryX=1;entryY=0.5;entryDx=0;entryDy=0;exitX=0.5;exitY=0;exitDx=0;exitDy=0;exitPerimeter=0;" parent="1" source="0G4iyGG1_v4yGsugWWcE-3" target="0G4iyGG1_v4yGsugWWcE-7" edge="1">
          <mxGeometry width="50" height="50" relative="1" as="geometry">
            <mxPoint x="430" y="410" as="sourcePoint" />
            <mxPoint x="480" y="360" as="targetPoint" />
            <Array as="points">
              <mxPoint x="465" y="380" />
            </Array>
          </mxGeometry>
        </mxCell>
        <mxCell id="0G4iyGG1_v4yGsugWWcE-18" value="" style="endArrow=classic;html=1;rounded=0;entryX=0;entryY=0.5;entryDx=0;entryDy=0;exitX=0.5;exitY=0;exitDx=0;exitDy=0;exitPerimeter=0;" parent="1" source="0G4iyGG1_v4yGsugWWcE-3" target="0G4iyGG1_v4yGsugWWcE-9" edge="1">
          <mxGeometry width="50" height="50" relative="1" as="geometry">
            <mxPoint x="430" y="470" as="sourcePoint" />
            <mxPoint x="480" y="420" as="targetPoint" />
            <Array as="points">
              <mxPoint x="465" y="430" />
            </Array>
          </mxGeometry>
        </mxCell>
        <mxCell id="0G4iyGG1_v4yGsugWWcE-19" value="" style="endArrow=classic;html=1;rounded=0;exitX=0.5;exitY=0;exitDx=0;exitDy=0;exitPerimeter=0;entryX=1;entryY=0.5;entryDx=0;entryDy=0;" parent="1" source="0G4iyGG1_v4yGsugWWcE-3" target="0G4iyGG1_v4yGsugWWcE-4" edge="1">
          <mxGeometry width="50" height="50" relative="1" as="geometry">
            <mxPoint x="430" y="470" as="sourcePoint" />
            <mxPoint x="480" y="420" as="targetPoint" />
            <Array as="points">
              <mxPoint x="465" y="430" />
            </Array>
          </mxGeometry>
        </mxCell>
        <mxCell id="S_RrZU1Ts7waJg15vX8d-1" value="Ötletek kedvelése/&lt;div&gt;kedvelés vissza-&lt;/div&gt;&lt;div&gt;vonása&lt;/div&gt;" style="ellipse;whiteSpace=wrap;html=1;" vertex="1" parent="1">
          <mxGeometry x="300" y="220" width="140" height="80" as="geometry" />
        </mxCell>
        <mxCell id="S_RrZU1Ts7waJg15vX8d-2" value="Kommentek kedvelése/&lt;div&gt;kedvelés vissza-&lt;/div&gt;&lt;div&gt;vonása&lt;/div&gt;" style="ellipse;whiteSpace=wrap;html=1;" vertex="1" parent="1">
          <mxGeometry x="490" y="220" width="140" height="80" as="geometry" />
        </mxCell>
        <mxCell id="S_RrZU1Ts7waJg15vX8d-3" value="" style="endArrow=classic;html=1;rounded=0;entryX=1;entryY=0.5;entryDx=0;entryDy=0;exitX=0.5;exitY=0;exitDx=0;exitDy=0;exitPerimeter=0;" edge="1" parent="1" source="0G4iyGG1_v4yGsugWWcE-3" target="S_RrZU1Ts7waJg15vX8d-1">
          <mxGeometry width="50" height="50" relative="1" as="geometry">
            <mxPoint x="440" y="340" as="sourcePoint" />
            <mxPoint x="490" y="290" as="targetPoint" />
            <Array as="points">
              <mxPoint x="465" y="260" />
            </Array>
          </mxGeometry>
        </mxCell>
        <mxCell id="S_RrZU1Ts7waJg15vX8d-4" value="" style="endArrow=classic;html=1;rounded=0;entryX=0;entryY=0.5;entryDx=0;entryDy=0;exitX=0.5;exitY=0;exitDx=0;exitDy=0;exitPerimeter=0;" edge="1" parent="1" source="0G4iyGG1_v4yGsugWWcE-3" target="S_RrZU1Ts7waJg15vX8d-2">
          <mxGeometry width="50" height="50" relative="1" as="geometry">
            <mxPoint x="440" y="340" as="sourcePoint" />
            <mxPoint x="490" y="290" as="targetPoint" />
            <Array as="points">
              <mxPoint x="465" y="260" />
            </Array>
          </mxGeometry>
        </mxCell>
      </root>
    </mxGraphModel>
  </diagram>
</mxfile>
